<svg width="1024" height="1024" viewBox="0 0 1024 1024" fill="none" xmlns="http://www.w3.org/2000/svg">
<path d="M565.81 816.752C581.336 813.391 590.495 818.624 593.479 832.411L599.992 862.498L601.152 862.247C607.917 860.783 612.42 863.517 613.745 869.638C615.07 875.758 612.101 880.111 605.336 881.575L603.339 882.008L604.511 887.419C606.435 896.309 603.036 902.104 594.918 903.861C586.8 905.618 581.373 901.735 579.448 892.845L578.277 887.432L574.927 888.157C568.162 889.621 563.659 886.887 562.334 880.767C561.009 874.647 563.978 870.294 570.743 868.83L573.707 868.188L568.296 843.191C567.306 838.617 565.52 836.912 562.17 837.638C560.431 838.014 559.483 838.624 557.357 839.084C553.75 839.865 550.586 837.717 549.68 833.529C548.899 829.922 549.855 826.545 552.279 823.727C555.086 820.49 559.754 818.063 565.81 816.752Z" fill="white"/>
<path d="M427.215 825.468C429.669 816.162 435.585 812.336 443.999 814.555C452.731 816.857 456.389 823.411 453.985 832.526L438.238 892.25C436.02 900.663 429.559 904.482 421.337 902.314L380.862 891.642C375.189 890.147 372.159 884.576 373.756 878.52C375.352 872.465 380.685 869.304 386.357 870.8L413.384 877.926L417.602 861.927L393.764 855.641C387.836 854.078 384.959 848.957 386.539 842.966C388.102 837.038 393.21 833.954 399.074 835.5L422.912 841.785L427.215 825.468Z" fill="white"/>
<path fill-rule="evenodd" clip-rule="evenodd" d="M511.54 820.461C535.133 819.95 549.91 832.486 550.379 854.102L550.508 860.034C550.963 881.057 537.351 894.934 515.867 895.399C496.031 895.829 481.633 882.559 481.249 864.831C481.068 856.461 484.686 853.02 493.78 852.823L523.041 852.189L522.998 850.213C522.666 844.022 517.956 839.641 509.981 839.813C505.303 839.915 502.552 840.765 500.398 841.801C497.397 843.25 495.653 844.937 491.633 845.024C486.295 845.14 482.864 841.983 482.747 836.579C482.644 831.834 485.529 828.013 490.675 825.133C495.691 822.321 502.907 820.648 511.54 820.461ZM506.206 866.4L506.209 866.532C506.336 872.397 509.783 876.279 514.857 876.169C520.525 876.046 523.471 872.026 523.344 866.161L523.341 866.029L506.206 866.4Z" fill="white"/>
<path fill-rule="evenodd" clip-rule="evenodd" d="M640.352 793.79C653.138 788.317 665.203 792.546 670.209 804.242C675.501 816.604 669.324 828.14 653.836 834.841L640.989 840.34L642.623 844.157C644.283 848.035 648.005 849.024 652.489 847.104C656.489 845.392 658.827 842.312 661.416 839.483C663.278 837.467 665.278 835.607 668.914 834.051C674.126 831.82 678.695 833.952 680.641 838.497C682.404 842.618 681.432 848.053 676.081 853.641C672.357 857.673 666.538 861.669 658.297 865.197C639.087 873.42 624.297 869.354 617.838 854.264L604.946 824.146C601.367 815.784 603.749 809.458 611.385 806.189C617.445 803.595 622.993 804.663 626.427 809.503L627.639 808.983C628.005 802.804 632.837 797.006 640.352 793.79ZM647.093 816.574C645.666 813.241 641.78 812.037 637.963 813.671C634.024 815.357 631.962 819.251 633.311 822.402L635.801 828.22L642.104 825.522C646.588 823.603 648.571 820.028 647.093 816.574Z" fill="white"/>
<path d="M676.102 776.124C683.444 771.455 690.152 773.283 695.245 781.293L731.074 837.641C736.167 845.651 734.977 852.501 727.635 857.17C720.292 861.839 713.583 860.011 708.49 852.001L672.661 795.653C667.568 787.643 668.759 780.793 676.102 776.124Z" fill="white"/>
<path fill-rule="evenodd" clip-rule="evenodd" d="M343.049 776.903C348.799 776.827 355.938 778.802 363.613 782.76C384.588 793.574 391.586 811.645 381.678 830.862L378.959 836.136C369.322 854.825 350.737 860.52 331.638 850.672C314.003 841.579 307.687 823.045 315.813 807.285C319.65 799.844 324.472 798.548 332.557 802.717L358.57 816.13L359.477 814.372C362.14 808.774 360.093 802.676 353.004 799.02C348.844 796.876 346.021 796.309 343.635 796.191C340.305 796.032 337.968 796.681 334.395 794.839C329.649 792.392 328.141 787.98 330.618 783.176C332.793 778.957 337.152 776.977 343.049 776.903ZM336.933 820.696C334.244 825.91 335.42 830.966 339.931 833.292C344.969 835.89 349.477 833.765 352.166 828.551L352.227 828.433L336.993 820.579L336.933 820.696Z" fill="white"/>
<path d="M270.799 745.94C280.66 733.994 296.227 734.707 312.799 748.388C319.407 753.843 324.178 759.661 326.659 765.043C329.379 770.963 329.217 776.13 326.069 779.942C322.838 783.856 317.716 784.159 313.497 780.676C311.362 778.913 310.087 776.834 307.976 772.869C304.723 766.765 302.811 763.904 300.015 761.596C296.558 758.742 293.61 758.275 291.974 760.258C290.295 762.291 291.094 765.258 295.397 770.606L300.439 776.82C309.777 788.289 310.386 797.595 303.21 806.288C293.978 817.472 277.753 816.728 262.35 804.013C257.419 799.943 253.27 795.236 250.563 790.437C247.176 784.393 247 779.119 250.188 775.256C253.462 771.291 258.383 771.335 262.603 774.818C264.28 776.203 266.139 778.507 268.316 782.184C271.387 787.369 273.237 789.581 275.017 791.05C277.914 793.442 280.985 793.241 282.58 791.309C284.133 789.429 283.456 787.246 280.443 783.648L272.567 774.24C264.004 764.008 263.581 754.684 270.799 745.94Z" fill="white"/>
<path fill-rule="evenodd" clip-rule="evenodd" d="M716.01 742.888C732.55 727.962 751.536 728.142 766.64 744.879L769.775 748.353C784.128 764.258 782.806 783.652 766.266 798.579C749.823 813.417 730.444 812.704 716.224 796.946L713.044 793.423C697.852 776.588 699.567 757.727 716.01 742.888ZM745.287 762.639C738.795 755.446 732.967 753.513 728.954 757.135C724.843 760.844 726.316 766.706 732.808 773.9L737.18 778.745C743.804 786.086 749.309 787.956 753.42 784.246C757.433 780.625 756.283 774.825 749.659 767.484L745.287 762.639Z" fill="white"/>
<path d="M244.362 695.117C247.198 692.753 250.633 692.035 254.254 692.878C258.423 693.864 262.737 696.876 266.705 701.636C276.878 713.837 276.483 724.38 265.648 733.413L242.005 753.125L242.765 754.037C247.196 759.353 246.859 764.611 242.05 768.621C237.24 772.631 232.007 772.016 227.575 766.7L226.267 765.131L222.014 768.677C215.027 774.501 208.317 774.174 202.998 767.795C197.679 761.415 198.607 754.806 205.594 748.981L209.847 745.435L207.651 742.803C203.219 737.487 203.556 732.229 208.365 728.219C213.175 724.208 218.409 724.823 222.841 730.139L224.782 732.469L244.427 716.091C248.021 713.094 248.705 710.721 246.51 708.089C245.37 706.722 244.391 706.165 242.998 704.494C240.634 701.659 241.072 697.861 244.362 695.117Z" fill="white"/>
<path fill-rule="evenodd" clip-rule="evenodd" d="M650.548 381.37C660.801 375.327 674.722 369.954 689.947 371.972C703.879 373.818 713.209 385.006 718.836 395.074C724.895 405.915 729.172 419.754 731.472 434.44C736.034 463.574 733.397 500.081 716.669 528.937C706.001 547.339 701.847 561.973 700.644 572.283C700.04 577.453 700.183 581.491 700.584 584.37C701.006 587.395 701.646 588.694 701.646 588.694L701.504 588.771L703.281 595.404C708.926 616.473 707.609 638.802 699.525 659.06C687.701 688.692 662.587 711.007 631.771 719.264L487.693 757.87C456.401 766.254 423.029 758.287 398.912 736.76L397.771 735.724C384.404 723.403 374.81 707.54 370.104 689.98L319.125 499.721C315.851 487.504 324.787 475.727 337.036 475.054L340.428 474.859C483.742 466.33 593.265 418.32 629.465 395.862L636.514 391.488C640.539 388.011 645.283 384.473 650.548 381.37ZM490.053 525.693C489.955 526.179 489.759 526.639 489.478 527.045C489.196 527.45 488.835 527.792 488.416 528.051C487.997 528.309 487.529 528.478 487.042 528.547C486.555 528.615 486.059 528.582 485.584 528.449L465.398 522.945L491.476 576.702C491.816 577.408 491.921 578.205 491.775 578.973C491.629 579.742 491.24 580.442 490.665 580.967C490.09 581.491 489.361 581.814 488.587 581.885C487.813 581.956 487.036 581.771 486.372 581.36L457.236 562.953L455.196 577.762C455.079 578.589 454.682 579.349 454.072 579.912C453.462 580.475 452.676 580.808 451.848 580.853L421.252 582.411L439.438 610.566C439.919 611.306 440.115 612.197 439.991 613.07C439.867 613.943 439.431 614.739 438.765 615.308L428.875 623.675L490.111 651.265C490.797 651.576 491.372 652.094 491.752 652.748C492.132 653.402 492.301 654.159 492.233 654.912L490.66 673.81L534.339 653.388C535.052 653.058 535.83 652.894 536.615 652.907C537.401 652.92 538.175 653.111 538.879 653.466C539.583 653.82 540.2 654.329 540.685 654.954C541.169 655.579 541.51 656.306 541.68 657.08L551.735 704.217L561.345 701.641L546.484 655.793C546.245 655.038 546.175 654.238 546.282 653.454C546.389 652.67 546.67 651.92 547.103 651.262C547.535 650.603 548.111 650.051 548.784 649.646C549.458 649.242 550.213 648.995 550.995 648.925L599.034 644.772L588.222 629.192C587.787 628.574 587.554 627.834 587.557 627.077C587.559 626.32 587.797 625.584 588.236 624.972L627.473 570.461L614.726 568.16C613.864 568 613.088 567.529 612.544 566.835C612 566.141 611.725 565.271 611.771 564.389L613.443 530.914L586.168 544.862C585.428 545.237 584.581 545.342 583.771 545.159C582.96 544.976 582.236 544.517 581.722 543.859L572.551 532.055L556.522 562.564C556.153 563.252 555.572 563.799 554.866 564.125C554.161 564.45 553.368 564.536 552.607 564.369C551.847 564.202 551.16 563.792 550.649 563.199C550.138 562.606 549.831 561.863 549.773 561.081L545.479 501.488L530.749 516.347C530.404 516.7 529.991 516.977 529.535 517.161C529.079 517.345 528.59 517.432 528.098 517.418C527.606 517.403 527.121 517.287 526.675 517.077C526.228 516.867 525.828 516.567 525.501 516.195L498.365 485.818L490.053 525.693ZM685.832 402.185C680.049 401.455 673.201 403.414 666.031 407.639C661.823 410.12 658.081 413.05 655.137 415.727L684.336 524.698C686.124 521.106 688.101 517.419 690.289 513.644C702.463 492.645 705.204 463.791 701.347 439.158C699.437 426.961 696.054 416.811 692.22 409.952C688.238 402.828 685.534 402.158 685.832 402.185Z" fill="white"/>
<path d="M760.727 694.298C773.289 676.458 791.106 671.993 809.97 685.276L815.197 688.957C831.258 700.267 835.268 718.731 821.985 737.595C816.482 745.41 809.598 750.72 803.29 752.808C798.588 754.334 794.149 754.112 790.808 751.759C786.173 748.495 785.06 742.633 788.476 737.782C790.677 734.656 793.575 733.632 796.364 732.533C799.078 731.542 801.721 730.42 803.847 727.402C807.87 721.689 805.149 715.822 798.034 710.812L795.07 708.725C787.201 703.184 781.066 701.364 776.208 708.263C773.741 711.766 773.862 714.914 773.729 717.965C773.619 720.87 773.659 723.56 771.496 726.632C767.929 731.698 762.614 732.147 758.087 728.96C754.476 726.417 752.443 721.518 752.708 715.417C752.957 709.224 755.413 701.843 760.727 694.298Z" fill="white"/>
<path d="M162.273 710.565C168.308 706.788 175.562 708.936 179.829 715.753C184.13 722.625 182.891 730.088 176.856 733.865C170.878 737.607 163.624 735.46 159.322 728.588C155.056 721.771 156.295 714.307 162.273 710.565Z" fill="white"/>
<path d="M226.37 670.836C234.416 665.8 241.258 667.039 245.874 674.415C250.49 681.79 248.615 688.485 240.569 693.521L204.138 716.324C196.092 721.36 189.25 720.12 184.634 712.745C180.017 705.369 181.893 698.675 189.939 693.638L226.37 670.836Z" fill="white"/>
<path fill-rule="evenodd" clip-rule="evenodd" d="M795.396 632.944C803.91 612.355 821.13 604.353 841.963 612.968L846.287 614.756C866.085 622.942 873.233 641.02 864.719 661.609C856.255 682.077 838.453 689.766 818.838 681.655L814.452 679.842C793.497 671.177 786.933 653.412 795.396 632.944ZM830.322 638.184C821.368 634.482 815.275 635.243 813.209 640.238C811.093 645.355 814.945 650.015 823.899 653.718L829.93 656.212C839.067 659.99 844.841 659.31 846.957 654.193C849.022 649.198 845.49 644.457 836.353 640.679L830.322 638.184Z" fill="white"/>
<path d="M194.323 615.837C213.599 614.764 219.278 616.887 223.914 627.952C228.831 639.685 226.742 645.278 211.977 657.969L186.743 679.62C185.209 680.906 183.756 681.872 182.114 682.559C175.123 685.489 168.414 682.44 165.255 674.901C162.478 668.274 164.621 662.302 171.26 658.019L202.996 637.217L202.588 636.244L165.089 642.952C156.923 644.444 151.473 642.011 148.849 635.749C145.817 628.514 148.339 621.74 155.209 618.861C156.972 618.122 158.62 617.789 160.932 617.678L194.323 615.837Z" fill="white"/>
<path d="M820.385 541.434C821.748 532.841 827.56 529.024 836.935 530.512L902.885 540.973C912.26 542.461 916.594 547.954 915.23 556.548C913.878 565.076 908.066 568.893 898.691 567.406L877.338 564.018L877.131 565.32C884.311 568.862 888.249 577.696 886.782 586.941C884.489 601.394 873.782 608.305 857.441 605.713L825.801 600.693C816.426 599.206 812.082 593.778 813.435 585.25C814.798 576.656 820.619 572.774 829.994 574.262L854.994 578.227C861.83 579.312 866.297 576.816 867.154 571.413C867.98 566.205 864.121 561.922 857.546 560.879L832.741 556.943C823.366 555.456 819.032 549.963 820.385 541.434Z" fill="white"/>
<path fill-rule="evenodd" clip-rule="evenodd" d="M185.939 532.329C194.896 530.739 200.517 534.494 201.969 542.672C203.121 549.162 200.824 554.323 195.332 556.57L195.563 557.868C201.498 559.626 206.049 565.647 207.478 573.695C209.909 587.389 203.054 598.18 190.528 600.404C177.288 602.755 167.454 594.124 164.438 577.52L161.996 563.762L157.907 564.487C153.753 565.225 151.947 568.626 152.8 573.429C153.56 577.712 156.03 580.687 158.198 583.85C159.74 586.121 161.098 588.491 161.789 592.386C162.78 597.967 159.668 601.933 154.801 602.798C150.387 603.581 145.314 601.403 141.084 594.924C138.001 590.383 135.429 583.81 133.861 574.983C130.208 554.409 137.522 540.926 153.683 538.056L185.939 532.329ZM188.656 566.86C187.907 562.642 184.582 559.751 181.207 560.35L174.977 561.457L176.175 568.207C177.028 573.009 180.059 575.751 183.758 575.095C187.327 574.461 189.382 570.949 188.656 566.86Z" fill="white"/>
<path d="M185.407 498.035C194.899 498.042 200.037 502.726 200.03 511.427C200.024 520.128 194.879 524.805 185.387 524.798L118.612 524.748C109.12 524.741 103.982 520.056 103.988 511.355C103.995 502.654 109.14 497.978 118.632 497.985L185.407 498.035Z" fill="white"/>
<path d="M865.923 442.049C892.174 439.579 909.47 453.115 911.921 479.169C913.069 491.376 910.527 503.069 905.041 510.206C901.439 514.848 897.02 517.846 892.688 518.254C886.323 518.852 881.494 514.672 880.883 508.175C880.506 504.172 881.653 500.886 884.796 496.287C888.23 491.263 889.615 487.689 889.195 483.226C888.269 473.382 880.132 468.52 866.94 469.761L862.871 470.143C848.302 471.514 841.065 477.624 842.009 487.665C842.429 492.127 844.577 495.965 848.803 500.069C852.957 504.114 854.542 506.879 854.906 510.751C855.517 517.248 851.552 522.255 845.187 522.854C839.28 523.41 833.206 520.075 828.473 514.097C823.452 507.883 819.884 498.817 818.859 487.923C816.353 461.278 830.878 445.345 858.77 442.721L865.923 442.049Z" fill="white"/>
<path d="M407.52 272.483C435.594 253.007 485.069 262.581 485.069 262.581C454.269 272.483 438.978 298.02 471.644 298.02C511.469 298.02 542.544 269.118 555.469 314.281C586.499 295.207 622.569 298.02 632.469 373.681C570.154 412.782 385.378 457.033 327.771 447.382C299.219 431.838 310.345 403.202 338.221 388.532C324.529 365.657 341.52 334.631 385.52 324.731C375.685 315.801 379.445 291.959 407.52 272.483Z" fill="white"/>
<path d="M849.745 355.706C855.591 353.463 860.345 355.733 862.825 362.195L863.558 364.102L868.728 362.119C877.22 358.86 883.465 361.335 886.44 369.089C889.416 376.843 886.407 382.799 877.914 386.058L872.744 388.043L873.973 391.243C876.452 397.705 874.437 402.573 868.591 404.816C862.744 407.06 857.99 404.79 855.51 398.328L854.424 395.497L830.545 404.66C826.176 406.337 824.764 408.361 825.992 411.561C826.63 413.223 827.377 414.066 828.156 416.096C829.479 419.543 827.838 422.997 823.838 424.532C820.392 425.854 816.909 425.426 813.754 423.46C810.126 421.181 807.015 416.937 804.795 411.152C799.103 396.321 802.878 386.471 816.048 381.417L844.788 370.388L844.363 369.28C841.884 362.818 843.899 357.949 849.745 355.706Z" fill="white"/>
<path d="M173.436 293.132C177.187 286.093 184.034 283.617 190.375 286.997C192.76 288.268 195.937 290.857 198.896 293.853L234.691 330.262C244.946 340.732 246.748 349.685 240.888 360.68C234.966 371.79 226.32 375.398 212.058 372.726L161.876 363.31C157.591 362.521 153.993 361.424 151.666 360.183C145.267 356.773 143.393 349.499 147.113 342.518C150.462 336.236 156.561 334.183 165.855 336.224L215.199 347.212L215.789 346.106L178.847 311.85C171.474 305.082 169.932 299.705 173.436 293.132Z" fill="white"/>
<path fill-rule="evenodd" clip-rule="evenodd" d="M789.562 298.289C807.71 286.904 826.583 291.56 838.424 310.433C850.195 329.195 846.139 348.159 828.159 359.439L824.14 361.962C804.931 374.013 786.651 369.061 774.88 350.3C763.039 331.426 766.501 312.757 785.598 300.776L789.562 298.289ZM822.084 320.607C819.211 316.028 813.301 316.157 804.925 321.412L799.396 324.88C791.188 330.029 788.277 335.436 791.149 340.014C794.092 344.705 800.122 344.269 808.33 339.119L813.857 335.65C822.233 330.395 825.027 325.298 822.084 320.607Z" fill="white"/>
<path fill-rule="evenodd" clip-rule="evenodd" d="M227.19 254.955C241.049 239.317 256.16 236.677 268.443 247.563L292.962 269.293C299.77 275.326 300.316 282.063 294.808 288.279C290.436 293.212 284.964 294.617 279.792 291.707L278.917 292.694C281.225 298.439 279.331 305.744 273.91 311.861C264.685 322.27 251.97 323.598 242.449 315.16C232.385 306.241 233.045 293.173 244.188 280.5L253.456 270.041L250.348 267.287C247.19 264.489 243.403 265.184 240.168 268.835C237.282 272.091 236.484 275.875 235.351 279.539C234.528 282.157 233.513 284.692 230.891 287.652C227.131 291.895 222.089 291.919 218.389 288.64C215.034 285.668 213.592 280.338 216.044 272.999C217.689 267.763 221.245 261.664 227.19 254.955ZM258.775 283.916C255.54 287.566 255.273 291.646 258.085 294.138C260.798 296.542 264.827 295.972 267.581 292.864C270.423 289.657 270.624 285.256 268.059 282.982L263.322 278.785L258.775 283.916Z" fill="white"/>
<path d="M747.823 204.815C754.359 197.841 761.572 197.373 768.065 203.458C774.559 209.543 774.516 216.82 768.025 223.746L754.277 238.417L773.277 256.221L787.024 241.55C793.56 234.575 800.773 234.108 807.267 240.193C813.76 246.278 813.717 253.554 807.227 260.48L765.083 305.454C758.593 312.38 751.334 312.896 744.841 306.811C738.347 300.727 738.345 293.498 744.881 286.523L758.674 271.805L739.674 254.001L725.882 268.72C719.391 275.646 712.133 276.161 705.64 270.076C699.146 263.991 699.144 256.763 705.68 249.789L747.823 204.815Z" fill="white"/>
<path d="M304.298 189.599C316.379 181.111 328.556 183.994 338.145 197.639L356.639 223.96C362.096 231.726 361.093 238.554 354.027 243.518C346.908 248.521 340.122 247.005 334.665 239.238L320.112 218.527C316.285 213.08 311.179 211.431 306.864 214.463C302.603 217.457 302.208 222.972 306.149 228.581L320.589 249.13C326.046 256.896 325.173 263.794 318.107 268.759C310.988 273.761 304.149 272.283 298.691 264.516L273.603 228.811C268.6 221.692 269.668 214.498 276.193 209.912C282.611 205.402 288.796 206.293 293.873 212.715L294.952 211.957C292.59 204.352 296.37 195.17 304.298 189.599Z" fill="white"/>
<path d="M659.272 173.198C663.523 164.711 669.833 162.121 677.495 165.959C684.391 169.413 686.422 174.926 683.587 182.353L684.766 182.944C689.752 176.668 696.15 174.786 702.397 177.915C705.462 179.45 707.407 181.603 708.23 184.227C708.995 186.822 708.609 189.799 707.016 192.981C705.481 196.046 703.504 197.932 701.057 198.697C698.639 199.403 695.691 198.959 692.243 197.453C683.785 193.733 677.622 196.323 673.431 204.692L663.955 223.611C659.763 231.98 652.982 234.482 645.084 230.526C637.186 226.571 635.834 219.996 640.025 211.627L659.272 173.198Z" fill="white"/>
<path d="M372.977 153.305C381.834 149.713 390.497 148.974 396.932 150.633C401.711 151.895 405.323 154.486 406.858 158.273C408.989 163.527 406.75 169.059 401.252 171.288C397.709 172.724 394.719 172.015 391.778 171.43C388.96 170.794 386.13 170.306 382.709 171.693C376.234 174.319 375.346 180.724 378.615 188.788L379.978 192.148C383.594 201.067 387.766 205.919 395.585 202.749C399.556 201.139 401.159 198.426 402.922 195.932C404.588 193.55 406.009 191.266 409.491 189.854C415.233 187.526 419.946 190.026 422.026 195.157C423.686 199.25 422.743 204.47 419.217 209.456C415.654 214.528 409.594 219.403 401.042 222.871C380.822 231.069 363.424 225.178 354.755 203.798L352.353 197.872C344.971 179.668 351.596 161.974 372.977 153.305Z" fill="white"/>
<path fill-rule="evenodd" clip-rule="evenodd" d="M574.98 166.642C580.609 146.382 597.646 137.021 618.351 142.773C637.468 148.084 647.425 164.944 642.679 182.029C640.438 190.095 635.981 192.346 627.216 189.911L599.017 182.077L598.487 183.982C597.019 190.005 600.265 195.559 607.95 197.694C612.459 198.947 615.339 198.926 617.699 198.555C620.991 198.033 623.147 196.923 627.021 197.999C632.166 199.428 634.54 203.439 633.094 208.647C631.823 213.22 627.96 216.047 622.201 217.32C616.587 218.566 609.195 218.086 600.875 215.774C578.138 209.458 567.605 193.191 573.393 172.359L574.98 166.642ZM613.77 161.478C608.308 159.961 604.327 162.96 602.757 168.612L602.722 168.739L619.235 173.327L619.271 173.2C620.841 167.547 618.66 162.837 613.77 161.478Z" fill="white"/>
<path fill-rule="evenodd" clip-rule="evenodd" d="M452.622 132.12C474.47 128.485 490.407 139.533 493.891 160.471L494.67 165.152C498.391 187.521 486.781 202.483 464.933 206.118C442.954 209.774 427.06 199.388 423.36 177.149L422.592 172.533C419.076 151.4 430.644 135.776 452.622 132.12ZM466.43 164.505C464.807 154.751 461.178 150.209 455.716 151.118C450.384 152.005 448.226 157.51 449.849 167.264L450.919 173.701C452.509 183.259 456.377 188.029 461.709 187.141C467.171 186.233 469.09 180.501 467.5 170.942L466.43 164.505Z" fill="white"/>
<path d="M515.491 128.566C522.665 128.958 527.105 133.492 528.062 141.334L532.938 178.966L533.991 179.023L544.312 142.353C546.532 134.355 551.1 130.511 557.879 130.882C565.711 131.31 570.707 136.534 570.301 143.972C570.196 145.88 569.778 147.508 568.869 149.637L555.961 180.487C548.518 198.301 544.13 202.484 532.151 201.83C519.448 201.136 515.327 196.818 510.348 177.995L501.872 145.845C501.384 143.903 501.148 142.173 501.245 140.396C501.659 132.827 507.33 128.12 515.491 128.566Z" fill="white"/>
</svg>
