<svg width="1024" height="1024" viewBox="0 0 1024 1024" fill="none" xmlns="http://www.w3.org/2000/svg">
<path d="M649.163 160.761C660.79 145.631 682.48 142.79 697.611 154.416C712.742 166.044 715.582 187.736 703.955 202.867L642.254 283.155C642.62 284.827 642.917 286.531 643.143 288.263C651.105 288.244 659.33 288.851 667.489 290.292C684.678 293.329 702.999 300.345 717.292 314.525C741.186 338.23 747.49 374.349 733.825 422.863C735.212 422.431 736.615 422.016 738.033 421.622C756.033 416.626 781.085 413.59 805.807 423.855C825.195 431.905 833.938 450.194 837.677 459.383C842.422 471.043 845.529 484.676 847.502 498.416C851.485 526.155 851.688 560.372 847.132 593.828C842.634 626.864 833.036 662.6 814.951 691.195C798.183 717.706 772.115 740.565 735.699 744.953C733.499 771.303 723.96 796.599 708.044 817.911C681.311 853.706 639.253 874.788 594.577 874.788H384.193C338.126 874.788 295.267 851.193 270.63 812.267C257.021 790.765 249.797 765.84 249.796 740.393V462.573C249.796 452.828 254.9 444.646 262.296 440.017C261.345 438.339 260.416 436.642 259.513 434.931C252.589 421.806 246.517 406.453 245.031 391.04C243.502 375.18 246.796 357.352 261.084 343.645C270.285 334.819 282.432 329.305 296.775 326.381C297.225 307.545 301.876 285.817 315.343 267.967C332.064 245.806 358.707 234.037 395.147 236.419C395.171 230.084 395.869 223.523 397.458 217.029C403.019 194.313 419.535 172.941 451.941 165.677C479.876 159.416 502.935 162.663 519.281 167.775C527.403 170.315 533.825 173.299 538.363 175.755C540.634 176.985 542.446 178.089 543.777 178.951C544.442 179.381 544.989 179.754 545.415 180.051C545.627 180.2 545.811 180.329 545.962 180.439L569.783 198.257L546.009 215.374C543.071 217.49 539.804 220.419 537.137 223.683C534.397 227.037 533.014 229.852 532.533 231.759C532.169 233.198 532.321 233.849 532.754 234.664C533.411 235.901 535.822 239.282 543.661 243.515C556.625 250.516 567.62 251.215 579.761 251.071L649.163 160.761ZM290.756 680.577C303.766 735.857 350.207 809.947 465.395 833.828H594.577C626.331 833.828 656.226 818.843 675.227 793.401C688.217 776.007 695.237 754.879 695.237 733.169V481.385C618.843 498.564 467.155 514.144 290.756 480.055V680.577ZM506.371 771.199C510.14 771.169 512.479 773.472 512.509 777.299L512.725 804.557C512.755 808.385 510.453 810.753 506.683 810.783L488.095 810.929C485.514 810.949 483.642 808.993 483.621 806.267C483.599 803.541 485.44 801.583 488.021 801.563L500.665 801.463L500.615 795.227L488.464 795.323C486.116 795.341 484.507 793.615 484.487 791.093C484.467 788.57 486.048 786.876 488.397 786.857L500.546 786.761L500.499 780.613L488.029 780.711C485.274 780.733 483.403 778.862 483.38 776.049C483.358 773.237 485.201 771.367 487.985 771.345L506.371 771.199ZM527.88 767.221C531.521 766.137 534.397 767.761 535.523 771.54L542.321 794.359L548.296 792.578C550.77 791.842 553.329 793.319 554.107 795.931C554.885 798.543 553.552 801.179 551.079 801.916L527.371 808.979C524.898 809.716 522.432 808.242 521.645 805.603C520.859 802.963 522.115 800.378 524.588 799.641L530.647 797.837L523.851 775.019C522.733 771.267 524.268 768.298 527.88 767.221ZM461.013 770.687C462.445 766.703 465.185 765.253 468.787 766.547C472.525 767.891 473.878 770.905 472.475 774.807L463.283 800.377C461.988 803.979 459.009 805.406 455.489 804.141L438.161 797.911C435.732 797.037 434.617 794.479 435.548 791.887C436.48 789.295 438.94 788.114 441.369 788.987L452.939 793.147L455.401 786.297L445.195 782.627C442.657 781.715 441.593 779.36 442.515 776.795C443.427 774.257 445.784 773.101 448.294 774.003L458.5 777.673L461.013 770.687ZM565.077 748.471C567.795 746.694 570.841 747.166 572.427 749.593C573.062 750.564 573.572 751.928 574.279 754.653L580.083 776.255C581.785 782.624 580.641 786.283 576.029 789.297C571.417 792.311 567.672 791.881 562.506 787.741L545.075 773.739C543.303 772.299 542.211 771.21 541.529 770.166C539.784 767.496 540.56 764.495 543.473 762.591C546.167 760.831 548.73 761.304 551.985 764.164L553.38 765.401L563.794 758.595L563.223 756.821C561.87 752.578 562.382 750.232 565.077 748.471ZM421.287 745.003C422.934 742.723 425.526 742.305 427.783 743.935L442.687 754.701C445.743 756.908 446.266 760.147 444.025 763.25L428.063 785.349C425.822 788.452 422.565 788.998 419.509 786.79L404.439 775.907C402.347 774.395 401.997 771.708 403.593 769.498C405.189 767.289 407.832 766.802 409.924 768.313L420.174 775.717L423.825 770.661L413.975 763.547C412.071 762.172 411.796 759.826 413.273 757.781C414.75 755.736 417.029 755.308 418.933 756.683L428.783 763.797L432.382 758.813L422.275 751.511C420.042 749.898 419.64 747.284 421.287 745.003ZM559.955 771.325L570.317 780.661L570.851 780.313L566.533 767.025L559.955 771.325ZM394.079 721.483C400.636 716.548 409.05 718.855 415.415 727.313C418.971 732.04 420.777 737.286 420.285 741.213C420.021 743.226 419.282 744.799 418.031 745.741C415.783 747.432 412.928 746.966 411.411 744.951C410.522 743.769 410.061 742.336 409.947 740.063C409.779 736.996 408.901 734.138 407.611 732.423C405.588 729.735 403.847 729.013 402.271 730.199C400.997 731.158 401.201 732.926 403.004 736.577L405.165 740.941C408.58 747.843 407.758 753.071 402.544 756.995C396.126 761.824 388.465 759.893 382.485 751.945C379.103 747.45 377.332 742.395 377.813 738.549C378.076 736.391 378.857 734.822 380.201 733.811C382.217 732.294 384.741 732.755 386.38 734.933C387.165 735.976 387.626 737.553 387.699 739.531C387.819 742.488 388.384 744.35 389.831 746.273C391.382 748.334 393.158 748.958 394.479 747.965C395.869 746.919 395.913 744.999 394.203 741.713L391.889 737.285C388.387 730.556 389.12 725.214 394.079 721.483ZM583.275 730.379C585.715 727.505 588.984 727.238 591.903 729.715L612.643 747.317C615.848 750.038 616.208 753.198 613.674 756.183C611.141 759.167 607.944 759.304 604.761 756.603L586.941 741.477L580.279 749.327C578.44 751.493 575.514 751.711 573.303 749.835C571.093 747.959 570.833 745.037 572.672 742.87L583.275 730.379ZM513.316 614.268C513.464 614.564 513.67 614.827 513.923 615.039C514.176 615.252 514.47 615.411 514.787 615.505C515.103 615.599 515.436 615.627 515.763 615.587C516.091 615.547 516.407 615.44 516.692 615.273L528.823 608.239L521.254 647.395C521.156 647.909 521.226 648.44 521.455 648.911C521.683 649.381 522.057 649.764 522.521 650.003C522.985 650.242 523.514 650.325 524.028 650.237C524.542 650.149 525.014 649.896 525.373 649.516L541.064 632.618L544.959 641.812C545.179 642.325 545.569 642.746 546.062 643.003C546.556 643.261 547.123 643.34 547.667 643.226L567.774 638.946L560.874 660.236C560.691 660.796 560.719 661.403 560.951 661.945C561.183 662.486 561.604 662.924 562.135 663.176L570 666.861L535.091 695.223C534.7 695.541 534.419 695.975 534.286 696.462C534.153 696.95 534.176 697.467 534.35 697.941L538.653 709.851L506.787 704.231C506.267 704.141 505.735 704.17 505.228 704.314C504.721 704.458 504.252 704.715 503.857 705.065C503.462 705.415 503.15 705.849 502.945 706.336C502.739 706.823 502.645 707.35 502.669 707.878L504.338 740H497.661L499.331 707.878C499.355 707.35 499.261 706.823 499.055 706.336C498.85 705.849 498.537 705.415 498.142 705.065C497.747 704.715 497.279 704.458 496.772 704.314C496.265 704.169 495.732 704.141 495.212 704.231L463.346 709.851L467.65 697.941C467.824 697.467 467.846 696.95 467.713 696.462C467.58 695.975 467.299 695.541 466.908 695.223L432 666.861L439.865 663.176C440.396 662.924 440.817 662.486 441.049 661.945C441.281 661.403 441.308 660.796 441.125 660.236L434.226 638.946L454.333 643.226C454.877 643.34 455.445 643.261 455.938 643.003C456.431 642.746 456.821 642.325 457.041 641.812L460.935 632.618L476.627 649.516C476.986 649.896 477.458 650.149 477.972 650.237C478.486 650.325 479.015 650.242 479.479 650.003C479.943 649.764 480.317 649.381 480.545 648.911C480.774 648.44 480.843 647.908 480.745 647.395L473.177 608.239L485.308 615.273C485.593 615.44 485.909 615.547 486.237 615.587C486.564 615.627 486.897 615.599 487.213 615.505C487.53 615.411 487.824 615.252 488.077 615.039C488.329 614.827 488.536 614.564 488.684 614.268L501 590L513.316 614.268ZM594.964 707.481C599.452 696.69 608.437 693.14 619.067 697.561L622.869 699.143C633.606 703.608 637.434 712.455 632.935 723.273C628.447 734.063 619.449 737.576 608.739 733.122L604.935 731.54C594.278 727.108 590.477 718.272 594.964 707.481ZM361.473 696.133C364.062 695.192 366.717 696.294 367.599 698.719L369.761 704.659L392.135 696.521C395.814 695.183 398.868 696.54 400.157 700.082C401.455 703.652 400.004 706.619 396.298 707.967L373.925 716.107L376.055 721.965C376.937 724.39 375.615 727.033 373.053 727.965C370.492 728.897 367.782 727.722 366.899 725.297L358.443 702.049C357.561 699.624 358.885 697.075 361.473 696.133ZM614.417 708.819C609.276 706.681 605.463 707.545 603.937 711.213C602.412 714.881 604.499 718.167 609.639 720.305L613.495 721.909C618.635 724.046 622.45 723.183 623.964 719.542C625.49 715.874 623.413 712.561 618.273 710.423L614.417 708.819ZM603.541 674.303C604.185 662.547 611.543 656.56 623.849 657.235L627.004 657.409C638.587 658.043 645.231 665.059 644.601 676.555C644.306 681.94 642.438 686.863 639.586 689.611C637.717 691.395 635.6 692.412 633.689 692.307C630.88 692.153 629.051 690.019 629.208 687.153C629.305 685.387 630.019 684.031 631.685 682.235C633.506 680.273 634.342 678.809 634.451 676.841C634.689 672.498 631.463 669.852 625.643 669.533L623.849 669.433C617.421 669.081 613.873 671.268 613.63 675.699C613.522 677.668 614.207 679.477 615.779 681.538C617.322 683.568 617.832 684.874 617.739 686.582C617.582 689.449 615.53 691.371 612.721 691.217C610.115 691.074 607.689 689.227 606.019 686.319C604.239 683.288 603.277 679.11 603.541 674.303ZM387.229 673.741C391.393 673.161 393.985 674.938 394.521 678.786C395.065 682.693 393.045 685.229 388.909 685.805L362.053 689.542C357.888 690.122 355.29 688.288 354.75 684.411C354.211 680.534 356.237 678.055 360.373 677.479L387.229 673.741ZM356.163 638.433C356.437 634.936 358.762 632.732 361.913 632.979C363.098 633.072 364.837 633.557 366.557 634.245L387.395 642.629C393.372 645.047 395.673 648.341 395.245 653.805C394.811 659.326 391.959 662.303 385.739 663.735L363.849 668.765C361.983 669.2 360.338 669.392 359.181 669.301C356.001 669.052 353.965 666.448 354.237 662.979C354.482 659.857 356.58 657.955 360.687 657.143L382.517 652.893L382.561 652.343L361.637 645.029C357.474 643.597 355.906 641.7 356.163 638.433ZM769.139 492.811C766.23 492.913 762.633 493.434 758.3 494.637C749.066 497.201 739.978 502.016 736.208 504.637L736.197 666.365C741.078 663.467 745.938 658.55 750.909 650.691C760.932 634.843 768.315 611.022 772.048 583.605C775.724 556.61 775.408 529.477 772.495 509.187C771.503 502.281 770.303 496.831 769.139 492.811ZM616.506 614.481C627.669 611.222 636.202 615.71 639.485 626.956C642.76 638.175 637.955 646.556 626.821 649.807L622.867 650.961C611.788 654.195 603.286 649.699 600.011 638.481C596.736 627.262 601.503 618.862 612.555 615.635L616.506 614.481ZM630.159 629.679C629.045 625.865 625.349 624.589 620.004 626.149L615.995 627.319C610.65 628.879 608.221 631.946 609.334 635.759C610.448 639.572 614.138 640.821 619.483 639.261L623.491 638.091C628.835 636.531 631.264 633.465 630.159 629.679ZM366.679 608.372C368.796 603.286 372.134 601.534 378.735 602.051L401.023 603.821C403.297 604.014 404.811 604.3 405.962 604.779C408.907 606.005 409.956 608.922 408.619 612.135C407.382 615.106 404.997 616.154 400.697 615.62L398.847 615.387L394.067 626.87L395.537 628.017C399.042 630.764 399.938 632.991 398.701 635.963C397.453 638.961 394.672 640.285 391.995 639.171C390.924 638.726 389.734 637.884 387.617 636.029L370.667 621.435C365.675 617.127 364.562 613.459 366.679 608.372ZM376.015 612.887L387.061 621.443L390.079 614.187L376.259 612.299L376.015 612.887ZM600.609 570.317C603.975 567.797 607.137 568.147 609.483 571.281C611.829 574.415 611.252 577.564 607.909 580.067L600.829 585.367L607.693 594.536L614.773 589.237C618.139 586.717 621.301 587.069 623.647 590.203C625.993 593.336 625.415 596.486 622.073 598.989L600.365 615.237C597.022 617.739 593.839 617.406 591.493 614.273C589.147 611.139 589.701 608.007 593.067 605.487L600.17 600.169L593.307 590.998L586.201 596.317C582.858 598.818 579.674 598.485 577.329 595.351C574.983 592.217 575.537 589.085 578.903 586.565L600.609 570.317ZM384.785 576.493C387.275 573.472 390.471 573.289 393.693 575.945L411.727 590.815L418.277 582.87C420.085 580.678 423.005 580.419 425.243 582.263C427.48 584.108 427.783 587.026 425.975 589.219L415.551 601.859C413.153 604.767 409.887 605.082 406.933 602.647L385.945 585.343C382.701 582.668 382.294 579.513 384.785 576.493ZM556.42 551.535C562.798 541.845 572.204 539.635 581.821 545.965C586.326 548.931 589.639 553.022 590.579 556.869C591.18 559.382 590.995 561.724 589.943 563.323C588.396 565.672 585.631 566.179 583.233 564.601C581.755 563.628 580.944 562.329 580.231 559.985C579.452 557.424 578.606 555.965 576.958 554.881C573.325 552.49 569.417 553.944 566.212 558.813L565.223 560.315C561.684 565.692 561.789 569.858 565.495 572.297C567.142 573.381 569.051 573.7 571.623 573.379C574.153 573.067 575.538 573.285 576.966 574.225C579.364 575.803 579.993 578.543 578.447 580.893C577.012 583.073 574.194 584.24 570.84 584.219C567.326 584.232 563.231 582.959 559.21 580.313C549.377 573.839 547.907 564.47 554.683 554.175L556.42 551.535ZM447.815 530.159C451.323 528.423 454.315 529.565 456.167 533.307L468.191 557.609C470.043 561.352 469.135 564.422 465.626 566.159C462.118 567.895 459.14 566.78 457.275 563.011L453.338 555.057L443.073 560.139L447.009 568.091C448.861 571.834 447.952 574.905 444.443 576.641C440.934 578.377 437.955 577.261 436.09 573.493L424.067 549.191C422.202 545.422 423.122 542.377 426.63 540.641C430.139 538.905 433.131 540.046 434.983 543.788L438.905 551.717L449.172 546.637L445.25 538.709C443.386 534.94 444.306 531.895 447.815 530.159ZM513.716 525.545C514.274 522.877 516.701 521.191 519.227 521.719L543.441 526.783C545.967 527.311 547.436 529.781 546.873 532.477C546.309 535.173 543.973 536.849 541.447 536.321L535.259 535.027L530.385 558.33C529.584 562.162 526.82 564.044 523.13 563.273C519.412 562.495 517.656 559.699 518.462 555.839L523.336 532.533L517.233 531.257C514.707 530.729 513.159 528.213 513.716 525.545ZM486.798 521.265C498.424 520.077 505.797 526.319 506.977 537.859L507.395 541.954C508.569 553.436 502.607 560.984 490.981 562.173C479.355 563.362 471.956 557.15 470.785 545.697L470.367 541.601C469.184 530.032 475.143 522.457 486.798 521.265ZM494.851 539.011C494.285 533.472 491.71 530.528 487.787 530.929C483.834 531.333 481.909 534.736 482.475 540.275L482.899 544.429C483.465 549.968 486.04 552.913 489.993 552.509C493.945 552.105 495.841 548.703 495.275 543.164L494.851 539.011ZM496.885 206.5C487.5 204.84 475.536 204.463 461.347 207.643C446.24 211.029 441.25 219.012 439.233 227.255C436.723 237.511 439.093 248.711 441.214 253.131L460.973 294.292L416.655 283.309C373.9 272.712 357.103 284.027 349.675 293.87C340.282 306.32 338.213 326.14 340.679 342.097L344.367 365.949L320.247 366.869C301.221 367.593 293.589 372.062 290.859 374.681C288.849 376.609 287.151 379.76 287.84 386.912C288.573 394.514 291.932 404.212 297.551 414.863C302.995 425.18 309.896 435.145 316.418 443.137C475.787 471.111 611.459 457.445 681.167 442.543C707.789 380.462 697.179 355.151 687.002 345.055C680.816 338.918 671.616 334.696 660.006 332.645C648.453 330.604 635.918 330.987 625.042 332.799L601.033 336.799L544.785 409.998C533.157 425.129 511.465 427.97 496.334 416.343C481.204 404.716 478.364 383.024 489.991 367.893L549.063 291.019C540.685 289.081 531.919 286.05 523.227 281.357C510.586 274.531 500.623 265.854 494.773 254.841C488.7 243.408 488.211 231.616 490.834 221.229C492.169 215.944 494.295 211.018 496.885 206.5ZM638.917 389.365C647.965 389.365 655.301 396.7 655.301 405.748C655.301 414.797 647.965 422.133 638.917 422.133C629.868 422.133 622.533 414.797 622.533 405.748C622.533 396.7 629.868 389.365 638.917 389.365ZM356.298 383.221C365.347 383.221 372.683 390.556 372.683 399.605C372.683 408.653 365.347 415.989 356.298 415.989C347.25 415.988 339.915 408.653 339.915 399.605C339.915 390.556 347.25 383.221 356.298 383.221ZM438.219 364.788C447.268 364.789 454.603 372.125 454.603 381.173C454.603 390.221 447.267 397.557 438.219 397.557C429.171 397.557 421.835 390.222 421.834 381.173C421.834 372.125 429.171 364.788 438.219 364.788ZM393.163 303.349C402.211 303.349 409.546 310.684 409.546 319.733C409.546 328.781 402.211 336.117 393.163 336.117C384.114 336.116 376.779 328.781 376.779 319.733C376.779 310.684 384.114 303.349 393.163 303.349Z" fill="white"/>
</svg>
